<svg xmlns="http://www.w3.org/2000/svg" viewBox="0 0 200 320" fill="none" aria-hidden="true">
  <path d="M82 42c8 4 18 14 22 26 3 8 2 18-2 26-2 4-6 8-10 10 12 6 22 18 26 32 4 14 2 30-6 42-4 6-10 12-18 16 6 14 4 30-6 42-8 10-20 16-32 16-6 0-12-1-18-4 4 12 2 26-6 36-10 12-26 18-42 16-20-2-36-16-42-34-2-6-3-12-3-18 0-20 10-38 26-48-8-10-12-22-12-36 0-28 22-50 50-50 10 0 20 3 28 8 6-14 18-26 32-32 8-4 18-6 28-4z" fill="#E8E2DC" opacity="0.9"/>
  <path d="M158 118c10 8 16 20 16 34 0 18-10 34-26 42 8 6 14 16 16 26 2 12-2 24-10 32-8 8-18 12-28 12-4 0-8 0-12-1 6 10 4 22-4 30-8 8-20 12-30 10-14-2-26-12-30-26-2-6-2-12 0-18 4-16 16-28 30-34-6-8-10-18-10-28 0-22 18-40 40-40 8 0 16 2 22 6 4-10 12-18 22-22 6-2 12-3 18-2z" fill="#D4CCC4" opacity="0.55"/>
  <path d="M112 200c6 18 2 38-10 52-8 10-20 16-32 16" stroke="#9A8F85" stroke-width="2.5" stroke-linecap="round"/>
  <path d="M70 88L42 64 30 72l20 28" stroke="#7A7068" stroke-width="2" stroke-linecap="round" stroke-linejoin="round"/>
  <circle cx="92" cy="72" r="5" fill="#6B625A"/>
  <path d="M104 78c4 2 8 6 10 10" stroke="#6B625A" stroke-width="2" stroke-linecap="round"/>
</svg>
